<?xml version="1.0" encoding="utf-8"?>
<!-- Generator: Adobe Illustrator 16.0.0, SVG Export Plug-In . SVG Version: 6.00 Build 0)  -->
<!DOCTYPE svg PUBLIC "-//W3C//DTD SVG 1.1//EN" "http://www.w3.org/Graphics/SVG/1.1/DTD/svg11.dtd">
<svg version="1.1" id="Layer_1" xmlns="http://www.w3.org/2000/svg" xmlns:xlink="http://www.w3.org/1999/xlink" x="0px" y="0px"
	 width="116.83px" height="140.355px" viewBox="0 0 116.83 140.355" enable-background="new 0 0 116.83 140.355"
	 xml:space="preserve">
<g>
	<path fill="#0091FF" d="M35.089,49.443V36.086c0-12.859,10.467-23.326,23.326-23.326c12.858,0,23.326,10.467,23.326,23.326v13.357
		h12.76V36.086C94.501,16.186,78.315,0,58.415,0c-19.9,0-36.086,16.186-36.086,36.086v13.357H35.089z"/>
	<path fill="#A7A9AC" d="M113.242,68.583c-2.792-8.772-12.361-8.772-12.361-8.772H15.949c0,0-9.57,0-12.361,8.772S0,91.71,0,100.083
		c0,8.374,0.797,22.729,3.588,31.501c2.791,8.771,12.361,8.771,12.361,8.771h84.932c0,0,9.569,0,12.361-8.771
		c2.791-8.772,3.588-23.127,3.588-31.501C116.83,91.71,116.033,77.355,113.242,68.583z M71.474,119.975
		c-0.146,0.414-0.366,0.762-0.658,1.043c-0.293,0.279-0.756,0.615-1.39,1.004c-0.635,0.391-1.414,0.756-2.341,1.098
		s-1.999,0.627-3.218,0.859c-1.219,0.23-2.535,0.348-3.948,0.348c-2.487,0-4.712-0.354-6.674-1.061
		c-1.963-0.707-3.669-1.742-5.119-3.107s-2.639-3.047-3.565-5.047c-0.927-1.998-1.597-4.291-2.011-6.875h-4.205
		c-0.391,0-0.689-0.188-0.896-0.566c-0.208-0.377-0.312-0.992-0.312-1.846c0-0.414,0.024-0.773,0.073-1.08
		c0.049-0.303,0.122-0.553,0.22-0.748c0.097-0.195,0.213-0.336,0.348-0.422c0.134-0.084,0.298-0.127,0.493-0.127h3.949
		c-0.024-0.463-0.043-0.945-0.055-1.445c-0.013-0.498-0.019-0.992-0.019-1.48c0-0.584,0.006-1.182,0.019-1.791
		c0.012-0.609,0.03-1.17,0.055-1.682h-3.949c-0.365,0-0.646-0.184-0.841-0.549c-0.195-0.365-0.293-0.988-0.293-1.865
		c0-0.414,0.03-0.773,0.092-1.078c0.061-0.305,0.14-0.549,0.237-0.732c0.098-0.182,0.22-0.322,0.366-0.42s0.316-0.146,0.512-0.146
		h4.425c0.462-2.486,1.151-4.74,2.065-6.764s2.084-3.748,3.511-5.176c1.426-1.426,3.12-2.527,5.082-3.309
		c1.962-0.779,4.235-1.17,6.819-1.17c1.146,0,2.273,0.098,3.383,0.293s2.121,0.438,3.035,0.73s1.693,0.617,2.34,0.969
		c0.646,0.354,1.103,0.641,1.371,0.859c0.269,0.221,0.457,0.428,0.567,0.623c0.109,0.195,0.201,0.414,0.273,0.658
		c0.073,0.242,0.128,0.535,0.165,0.877c0.036,0.342,0.055,0.744,0.055,1.207c0,0.438-0.019,0.811-0.055,1.115
		c-0.037,0.305-0.098,0.555-0.183,0.75c-0.086,0.195-0.189,0.34-0.312,0.438s-0.28,0.146-0.475,0.146
		c-0.366,0-0.811-0.176-1.335-0.529s-1.177-0.744-1.956-1.17c-0.78-0.428-1.725-0.816-2.834-1.172
		c-1.109-0.352-2.432-0.529-3.967-0.529c-1.609,0-3.023,0.25-4.242,0.75c-1.22,0.5-2.273,1.23-3.163,2.193
		c-0.891,0.963-1.621,2.133-2.194,3.51c-0.572,1.379-1.018,2.943-1.334,4.699h11.189c0.194,0,0.365,0.049,0.512,0.146
		s0.274,0.238,0.384,0.42c0.109,0.184,0.194,0.428,0.256,0.732c0.061,0.305,0.092,0.664,0.092,1.078c0,0.877-0.11,1.5-0.329,1.865
		c-0.22,0.365-0.524,0.549-0.914,0.549H48.839c-0.049,0.512-0.086,1.029-0.109,1.553c-0.024,0.525-0.037,1.092-0.037,1.701
		c0,0.535,0.013,1.061,0.037,1.572c0.023,0.512,0.061,1.035,0.109,1.572h11.738c0.194,0,0.365,0.043,0.512,0.127
		c0.146,0.086,0.274,0.227,0.384,0.422s0.194,0.445,0.256,0.748c0.061,0.307,0.092,0.666,0.092,1.08c0,0.854-0.11,1.469-0.329,1.846
		c-0.22,0.379-0.524,0.566-0.914,0.566h-11.3c0.269,1.707,0.688,3.23,1.262,4.572c0.572,1.34,1.328,2.467,2.268,3.381
		c0.938,0.914,2.047,1.604,3.327,2.066c1.279,0.463,2.773,0.695,4.479,0.695c1.584,0,2.943-0.195,4.077-0.586
		c1.134-0.389,2.103-0.816,2.907-1.279c0.804-0.463,1.456-0.891,1.956-1.279c0.499-0.391,0.907-0.586,1.225-0.586
		c0.17,0,0.311,0.043,0.421,0.129c0.109,0.086,0.206,0.236,0.292,0.457c0.085,0.219,0.141,0.512,0.165,0.877
		c0.023,0.365,0.036,0.828,0.036,1.389C71.692,118.926,71.619,119.561,71.474,119.975z"/>
</g>
</svg>
